<?xml version="1.0" encoding="UTF-8" standalone="no"?>
<!-- Created with Inkscape (http://www.inkscape.org/) -->

<svg
   xmlns:dc="http://purl.org/dc/elements/1.1/"
   xmlns:cc="http://creativecommons.org/ns#"
   xmlns:rdf="http://www.w3.org/1999/02/22-rdf-syntax-ns#"
   xmlns:svg="http://www.w3.org/2000/svg"
   xmlns="http://www.w3.org/2000/svg"
   xmlns:sodipodi="http://sodipodi.sourceforge.net/DTD/sodipodi-0.dtd"
   xmlns:inkscape="http://www.inkscape.org/namespaces/inkscape"
   width="1000"
   height="500"
   viewBox="0 0 1000 500"
   id="svg2"
   version="1.1"
   inkscape:version="0.91 r13725"
   sodipodi:docname="Ch2_Slide2.svg">
  <defs
     id="defs4">
    <marker
       inkscape:stockid="DotS"
       orient="auto"
       refY="0.0"
       refX="0.0"
       id="DotS"
       style="overflow:visible"
       inkscape:isstock="true">
      <path
         id="path4300"
         d="M -2.5,-1.0 C -2.5,1.7600000 -4.7400000,4.0 -7.5,4.0 C -10.260000,4.0 -12.5,1.7600000 -12.5,-1.0 C -12.5,-3.7600000 -10.260000,-6.0 -7.5,-6.0 C -4.7400000,-6.0 -2.5,-3.7600000 -2.5,-1.0 z "
         style="fill-rule:evenodd;stroke:#000000;stroke-width:1pt;stroke-opacity:1;fill:#000000;fill-opacity:1"
         transform="scale(0.2) translate(7.4, 1)" />
    </marker>
    <marker
       inkscape:stockid="DotM"
       orient="auto"
       refY="0.0"
       refX="0.0"
       id="DotM"
       style="overflow:visible"
       inkscape:isstock="true">
      <path
         id="path4297"
         d="M -2.5,-1.0 C -2.5,1.7600000 -4.7400000,4.0 -7.5,4.0 C -10.260000,4.0 -12.5,1.7600000 -12.5,-1.0 C -12.5,-3.7600000 -10.260000,-6.0 -7.5,-6.0 C -4.7400000,-6.0 -2.5,-3.7600000 -2.5,-1.0 z "
         style="fill-rule:evenodd;stroke:#000000;stroke-width:1pt;stroke-opacity:1;fill:#000000;fill-opacity:1"
         transform="scale(0.4) translate(7.4, 1)" />
    </marker>
  </defs>
  <sodipodi:namedview
     id="base"
     pagecolor="#ffffff"
     bordercolor="#666666"
     borderopacity="1.0"
     inkscape:pageopacity="1"
     inkscape:pageshadow="2"
     inkscape:zoom="0.7071068"
     inkscape:cx="411.56123"
     inkscape:cy="98.189736"
     inkscape:document-units="px"
     inkscape:current-layer="layer1"
     showgrid="false"
     showguides="true"
     inkscape:guide-bbox="true"
     inkscape:window-width="1861"
     inkscape:window-height="1056"
     inkscape:window-x="59"
     inkscape:window-y="24"
     inkscape:window-maximized="1"
     units="px" />
  <metadata
     id="metadata7">
    <rdf:RDF>
      <cc:Work
         rdf:about="">
        <dc:format>image/svg+xml</dc:format>
        <dc:type
           rdf:resource="http://purl.org/dc/dcmitype/StillImage" />
        <dc:title />
      </cc:Work>
    </rdf:RDF>
  </metadata>
  <g
     inkscape:label="Layer 1"
     inkscape:groupmode="layer"
     id="layer1"
     transform="translate(0,-552.36213)">
    <g
       id="g4603"
       transform="matrix(1.1185619,0,0,1.1185619,-35.499824,-10.822691)">
      <g
         style="fill:#ffffff"
         transform="translate(86.974132,213.54625)"
         id="g4599">
        <path
           style="fill:#ffffff;fill-rule:evenodd;stroke:none;stroke-width:7.08699989;stroke-linecap:round;stroke-linejoin:round;stroke-miterlimit:4;stroke-dasharray:none;stroke-opacity:1"
           d="m 160.23499,-48.18965 c -37.85714,45.71429 -34.1259,116.2985 -34.1259,116.2985 62.85715,32.14286 125.00001,0 125.00001,0 0,0 -4.59619,-77.06363 -24.06163,-116.81109"
           id="path4590"
           inkscape:connector-curvature="0"
           sodipodi:nodetypes="cccc" />
        <path
           sodipodi:nodetypes="cccc"
           inkscape:connector-curvature="0"
           id="path4592"
           d="m 160.23499,-48.18965 c -37.85714,45.71429 -34.1259,116.2985 -34.1259,116.2985 62.85715,32.14286 125.00001,0 125.00001,0 0,0 0,-39.94052 -8.15173,-65.54585"
           style="fill:#ffffff;fill-rule:evenodd;stroke:#000000;stroke-width:7.08661413;stroke-linecap:round;stroke-linejoin:round;stroke-miterlimit:4;stroke-dasharray:none;stroke-opacity:1" />
      </g>
      <circle
         style="opacity:1;fill:#ffffff;fill-opacity:1;stroke:#000000;stroke-width:7.08661413;stroke-linecap:round;stroke-miterlimit:4;stroke-dasharray:none;stroke-dashoffset:0;stroke-opacity:1"
         id="circle4197"
         cx="274.82202"
         cy="122.86729"
         r="30" />
      <g
         transform="translate(-200.51327,15)"
         id="g4241">
        <path
           sodipodi:nodetypes="czzzc"
           inkscape:connector-curvature="0"
           id="path4253"
           d="m 475.27678,172.51933 c 0,0 -22.2965,18.33527 -33.84011,0 -11.54361,-18.33527 -2.52539,-66.67007 32.82995,-66.67007 35.35534,0 48.32551,49.97754 35.35534,66.67007 -12.97017,16.69253 -34.34518,0 -34.34518,0 z"
           style="fill:none;fill-rule:evenodd;stroke:#000000;stroke-width:3.54330707;stroke-linecap:round;stroke-linejoin:miter;stroke-miterlimit:0.89999998;stroke-dasharray:3.54330707, 7.08661413;stroke-dashoffset:0;stroke-opacity:1" />
        <g
           transform="translate(105,66.785715)"
           id="g4243">
          <rect
             style="opacity:1;fill:#ffffff;fill-opacity:1;stroke:#000000;stroke-width:7.08661413;stroke-linecap:round;stroke-linejoin:round;stroke-miterlimit:4;stroke-dasharray:none;stroke-dashoffset:0;stroke-opacity:1"
             id="rect4245"
             width="32.142857"
             height="22.5"
             x="354.46429"
             y="135.21935" />
          <g
             id="g4247"
             transform="translate(-1.5120966,0)">
            <path
               sodipodi:open="true"
               d="m 365.02857,118.55253 a 14.504536,14.504536 0 0 1 -6.95454,-16.58316 14.504536,14.504536 0 0 1 14.52297,-10.604253 14.504536,14.504536 0 0 1 13.67796,11.673903 14.504536,14.504536 0 0 1 -8.19074,16.0087"
               sodipodi:end="1.1415194"
               sodipodi:start="2.0758962"
               sodipodi:ry="14.504536"
               sodipodi:rx="14.504536"
               sodipodi:cy="105.85923"
               sodipodi:cx="372.04724"
               sodipodi:type="arc"
               id="path4249"
               style="opacity:1;fill:#ffffff;fill-opacity:1;stroke:#000000;stroke-width:7.08661413;stroke-linecap:round;stroke-linejoin:round;stroke-miterlimit:4;stroke-dasharray:none;stroke-dashoffset:0;stroke-opacity:1" />
            <rect
               y="118.47617"
               x="366.23886"
               height="46.467018"
               width="11.616755"
               id="rect4251"
               style="opacity:1;fill:#ffffff;fill-opacity:1;stroke:#000000;stroke-width:7.08661413;stroke-linecap:round;stroke-linejoin:round;stroke-miterlimit:4;stroke-dasharray:none;stroke-dashoffset:0;stroke-opacity:1" />
          </g>
        </g>
      </g>
    </g>
    <g
       id="g4299"
       transform="matrix(1.1185619,0,0,1.1185619,61.815065,-28.719682)">
      <path
         style="fill:none;fill-rule:evenodd;stroke:#000000;stroke-width:3.54330707;stroke-linecap:round;stroke-linejoin:miter;stroke-miterlimit:0.89999998;stroke-dasharray:3.54330709, 7.08661417;stroke-dashoffset:0;stroke-opacity:1"
         d="m 515.82674,260.24418 c 0,0 -77.27199,63.54376 -117.27817,0 -40.00618,-63.54374 -8.75213,-231.055475 113.7773,-231.055475 122.52944,0 167.47958,173.204905 122.52944,231.055475 -44.95014,57.85059 -119.02857,0 -119.02857,0 z"
         id="path4293"
         inkscape:connector-curvature="0"
         sodipodi:nodetypes="czzzc" />
      <g
         id="g4287"
         transform="translate(142.91326,154.36719)">
        <path
           sodipodi:open="true"
           d="m 365.02857,118.55253 a 14.504536,14.504536 0 0 1 -6.95454,-16.58316 14.504536,14.504536 0 0 1 14.52297,-10.604253 14.504536,14.504536 0 0 1 13.67796,11.673903 14.504536,14.504536 0 0 1 -8.19074,16.0087"
           sodipodi:end="1.1415194"
           sodipodi:start="2.0758962"
           sodipodi:ry="14.504536"
           sodipodi:rx="14.504536"
           sodipodi:cy="105.85923"
           sodipodi:cx="372.04724"
           sodipodi:type="arc"
           id="path4289"
           style="opacity:1;fill:#ffffff;fill-opacity:1;stroke:#000000;stroke-width:7.08661413;stroke-linecap:round;stroke-linejoin:round;stroke-miterlimit:4;stroke-dasharray:none;stroke-dashoffset:0;stroke-opacity:1" />
        <rect
           y="118.47617"
           x="366.23886"
           height="46.467018"
           width="11.616755"
           id="rect4291"
           style="opacity:1;fill:#ffffff;fill-opacity:1;stroke:#000000;stroke-width:7.08661413;stroke-linecap:round;stroke-linejoin:round;stroke-miterlimit:4;stroke-dasharray:none;stroke-dashoffset:0;stroke-opacity:1" />
      </g>
    </g>
    <g
       id="g4379"
       transform="matrix(2.0410647,0,0,2.0410647,-2275.9378,-534.47889)">
      <path
         d="m 1037.8158,325.53272 a 11.062901,11.062901 0 0 1 3.2471,7.83441 11.062901,11.062901 0 0 1 -3.2541,7.83152"
         sodipodi:open="true"
         sodipodi:end="0.78716143"
         sodipodi:start="5.4969128"
         sodipodi:ry="11.062901"
         sodipodi:rx="11.062901"
         sodipodi:cy="333.36221"
         sodipodi:cx="1030"
         sodipodi:type="arc"
         style="opacity:1;fill:none;fill-opacity:0.41116752;stroke:#000000;stroke-width:1.94183385;stroke-linecap:round;stroke-linejoin:round;stroke-miterlimit:4;stroke-dasharray:none;stroke-dashoffset:0;stroke-opacity:1"
         id="ellipse4327"
         inkscape:transform-center-x="-38.38214"
         inkscape:transform-center-y="0.12495869" />
      <path
         d="m 1045.2378,318.28263 a 21.437901,21.437901 0 0 1 0.1723,29.98299"
         sodipodi:open="true"
         sodipodi:end="0.76868342"
         sodipodi:start="5.5030052"
         sodipodi:ry="21.437901"
         sodipodi:rx="21.437901"
         sodipodi:cy="333.36221"
         sodipodi:cx="1030"
         sodipodi:type="arc"
         inkscape:transform-center-y="0.12495869"
         inkscape:transform-center-x="-38.38214"
         id="circle4333"
         style="opacity:1;fill:none;fill-opacity:0.41116752;stroke:#000000;stroke-width:1.94183385;stroke-linecap:round;stroke-linejoin:round;stroke-miterlimit:4;stroke-dasharray:none;stroke-dashoffset:0;stroke-opacity:1" />
      <path
         d="m 1054.9354,308.53449 a 35.187901,35.187901 0 0 1 -0.097,49.75199"
         sodipodi:open="true"
         sodipodi:end="0.78711442"
         sodipodi:start="5.4999504"
         sodipodi:ry="35.187901"
         sodipodi:rx="35.187901"
         sodipodi:cy="333.36221"
         sodipodi:cx="1030"
         sodipodi:type="arc"
         style="opacity:1;fill:none;fill-opacity:0.41116752;stroke:#000000;stroke-width:1.94183385;stroke-linecap:round;stroke-linejoin:round;stroke-miterlimit:4;stroke-dasharray:none;stroke-dashoffset:0;stroke-opacity:1"
         id="circle4339"
         inkscape:transform-center-x="-38.38214"
         inkscape:transform-center-y="0.12495869" />
      <path
         d="m 1067.368,296.04152 a 52.812901,52.812901 0 0 1 0.012,74.62904"
         sodipodi:open="true"
         sodipodi:end="0.78443432"
         sodipodi:start="5.4984208"
         sodipodi:ry="52.812901"
         sodipodi:rx="52.812901"
         sodipodi:cy="333.36221"
         sodipodi:cx="1030"
         sodipodi:type="arc"
         inkscape:transform-center-y="0.12495869"
         inkscape:transform-center-x="-38.38214"
         id="circle4345"
         style="opacity:1;fill:none;fill-opacity:0.41116752;stroke:#000000;stroke-width:1.94183385;stroke-linecap:round;stroke-linejoin:round;stroke-miterlimit:4;stroke-dasharray:none;stroke-dashoffset:0;stroke-opacity:1" />
    </g>
    <g
       id="g4213"
       transform="translate(-966,-12)">
      <g
         id="g4304"
         transform="matrix(1.1985838,0,0,1.1985838,-92.699683,-114.98498)">
        <path
           sodipodi:nodetypes="cc"
           style="fill:none;fill-rule:evenodd;stroke:#000000;stroke-width:3.54330707;stroke-linecap:round;stroke-linejoin:miter;stroke-miterlimit:4;stroke-dasharray:none;stroke-opacity:1"
           d="m 723,822.3622 0,143.71962"
           id="path4306"
           inkscape:connector-curvature="0" />
        <path
           inkscape:connector-curvature="0"
           id="path4308"
           d="m 143,822.3622 703,0"
           style="fill:none;fill-rule:evenodd;stroke:#000000;stroke-width:10.62992096;stroke-linecap:round;stroke-linejoin:miter;stroke-miterlimit:4;stroke-dasharray:none;stroke-opacity:1" />
        <path
           sodipodi:nodetypes="cc"
           inkscape:connector-curvature="0"
           id="path4310"
           d="m 257,826.3622 0,139"
           style="fill:none;fill-rule:evenodd;stroke:#000000;stroke-width:3.54330707;stroke-linecap:round;stroke-linejoin:miter;stroke-miterlimit:4;stroke-dasharray:none;stroke-opacity:1" />
      </g>
      <rect
         y="854.28491"
         x="486.9985"
         height="9.838891"
         width="26.002783"
         id="rect4627"
         style="opacity:1;fill:#000000;fill-opacity:1;stroke:#000000;stroke-width:14.08646011;stroke-linecap:round;stroke-linejoin:round;stroke-miterlimit:4;stroke-dasharray:none;stroke-dashoffset:0;stroke-opacity:1" />
      <path
         sodipodi:nodetypes="czzc"
         inkscape:connector-curvature="0"
         id="path4186"
         d="M 517.60217,851.76563 C 622.25397,864.49355 810.34437,815.94584 774.98903,668.86762 739.63369,521.7894 260.21529,524.45299 216.37467,670.28183 172.53405,816.11067 364.8671,863.66513 482.24683,852.35142"
         style="fill:none;fill-rule:evenodd;stroke:#000000;stroke-width:7.08661413;stroke-linecap:round;stroke-linejoin:miter;stroke-miterlimit:4;stroke-dasharray:7.08661417, 14.17322835;stroke-dashoffset:0;stroke-opacity:1" />
    </g>
    <g
       id="g5183"
       transform="matrix(0.8660254,0.5,-0.5,0.8660254,223.90821,-417.28602)">
      <path
         sodipodi:nodetypes="czzzc"
         inkscape:connector-curvature="0"
         id="path4231"
         d="m 196.1,720.29829 c 0,0 -44.65419,36.72086 -67.77309,0 -23.11891,-36.72087 -5.05771,-133.52313 65.75,-133.52313 70.80772,0 96.78366,100.09225 70.80772,133.52313 -25.97594,33.43087 -68.78463,0 -68.78463,0 z"
         style="fill:none;fill-rule:evenodd;stroke:#000000;stroke-width:7.08661413;stroke-linecap:round;stroke-linejoin:miter;stroke-miterlimit:0.89999998;stroke-dasharray:7.08661417, 14.17322835;stroke-dashoffset:0;stroke-opacity:1" />
      <path
         sodipodi:open="true"
         d="m 182.56083,745.9713 a 29.04888,29.04888 0 0 1 -13.92817,-33.21183 29.04888,29.04888 0 0 1 29.08579,-21.23761 29.04888,29.04888 0 0 1 27.39347,23.37985 29.04888,29.04888 0 0 1 -16.40395,32.06134"
         sodipodi:end="1.1415194"
         sodipodi:start="2.0758962"
         sodipodi:ry="29.04888"
         sodipodi:rx="29.04888"
         sodipodi:cy="720.54987"
         sodipodi:cx="196.61743"
         sodipodi:type="arc"
         id="path4201"
         style="opacity:1;fill:#ffffff;fill-opacity:1;stroke:#000000;stroke-width:10.62992096;stroke-linecap:round;stroke-linejoin:round;stroke-miterlimit:4;stroke-dasharray:none;stroke-dashoffset:0;stroke-opacity:1" />
      <rect
         y="745.81836"
         x="184.98473"
         height="93.061569"
         width="23.265392"
         id="rect4203"
         style="opacity:1;fill:#ffffff;fill-opacity:1;stroke:#000000;stroke-width:10.62992096;stroke-linecap:round;stroke-linejoin:round;stroke-miterlimit:4;stroke-dasharray:none;stroke-dashoffset:0;stroke-opacity:1" />
      <path
         sodipodi:nodetypes="cc"
         inkscape:connector-curvature="0"
         id="path4227"
         d="m 196.57569,838.46233 0,56.21499"
         style="fill:none;fill-rule:evenodd;stroke:#000000;stroke-width:7.08661413;stroke-linecap:butt;stroke-linejoin:miter;stroke-miterlimit:4;stroke-dasharray:none;stroke-opacity:1;marker-end:url(#DotS)" />
    </g>
    <rect
       ry="7.5"
       y="513.65814"
       x="-29.720781"
       height="594"
       width="1083"
       id="rect4210"
       style="opacity:1;fill:#ffffff;fill-opacity:1;stroke:#000000;stroke-width:7.08661413;stroke-linecap:round;stroke-linejoin:round;stroke-miterlimit:4;stroke-dasharray:none;stroke-dashoffset:0;stroke-opacity:1" />
    <path
       id="path4317"
       style="opacity:1;fill:none;fill-opacity:1;stroke:#000000;stroke-width:3.54330707;stroke-linecap:round;stroke-linejoin:round;stroke-miterlimit:4;stroke-dasharray:none;stroke-dashoffset:0;stroke-opacity:1"
       sodipodi:type="arc"
       sodipodi:cx="183.13422"
       sodipodi:cy="897.41571"
       sodipodi:rx="30.759146"
       sodipodi:ry="80.256622"
       sodipodi:start="1.5131576"
       sodipodi:end="4.7295083"
       sodipodi:open="true"
       d="m 184.90615,977.53905 a 30.759146,80.256622 0 0 1 -27.89276,-37.74278 30.759146,80.256622 0 0 1 -0.63652,-81.96552 30.759146,80.256622 0 0 1 27.2839,-40.6599"
       transform="matrix(0.95614882,-0.29288128,0.29288128,0.95614882,0,0)" />
    <path
       d="m 171.90615,977.53905 a 30.759146,80.256622 0 0 1 -27.89276,-37.74278 30.759146,80.256622 0 0 1 -0.63652,-81.96552 30.759146,80.256622 0 0 1 27.2839,-40.6599"
       sodipodi:open="true"
       sodipodi:end="4.7295083"
       sodipodi:start="1.5131576"
       sodipodi:ry="80.256622"
       sodipodi:rx="30.759146"
       sodipodi:cy="897.41571"
       sodipodi:cx="170.13422"
       sodipodi:type="arc"
       style="opacity:1;fill:none;fill-opacity:1;stroke:#000000;stroke-width:3.54330707;stroke-linecap:round;stroke-linejoin:round;stroke-miterlimit:4;stroke-dasharray:none;stroke-dashoffset:0;stroke-opacity:1"
       id="path4319"
       transform="matrix(0.95614882,-0.29288128,0.29288128,0.95614882,0,0)" />
    <ellipse
       style="opacity:1;fill:#ffffff;fill-opacity:1;stroke:#000000;stroke-width:7.08661413;stroke-linecap:round;stroke-linejoin:round;stroke-miterlimit:4;stroke-dasharray:none;stroke-dashoffset:0;stroke-opacity:1"
       id="path4298"
       cx="280.13422"
       cy="897.41571"
       rx="30.759146"
       ry="80.256622"
       transform="matrix(0.95614882,-0.29288128,0.29288128,0.95614882,0,0)" />
    <path
       id="ellipse4300"
       style="opacity:1;fill:none;fill-opacity:1;stroke:#000000;stroke-width:7.08661413;stroke-linecap:round;stroke-linejoin:round;stroke-miterlimit:4;stroke-dasharray:none;stroke-dashoffset:0;stroke-opacity:1"
       sodipodi:type="arc"
       sodipodi:cx="140.13422"
       sodipodi:cy="897.41571"
       sodipodi:rx="30.759146"
       sodipodi:ry="80.256622"
       sodipodi:start="1.5715098"
       sodipodi:end="4.7443487"
       sodipodi:open="true"
       d="m 140.11227,977.67231 a 30.759146,80.256622 0 0 1 -26.78576,-40.90426 30.759146,80.256622 0 0 1 0.507,-80.96864 30.759146,80.256622 0 0 1 27.28359,-38.59934"
       transform="matrix(0.95614882,-0.29288128,0.29288128,0.95614882,0,0)" />
    <path
       style="fill:none;fill-rule:evenodd;stroke:#000000;stroke-width:7.08661413;stroke-linecap:round;stroke-linejoin:miter;stroke-miterlimit:4;stroke-dasharray:none;stroke-opacity:1"
       d="M 375.6793,739.56032 507.51867,699.17615"
       id="path4302"
       inkscape:connector-curvature="0" />
    <path
       inkscape:connector-curvature="0"
       id="path4304"
       d="M 422.68675,893.02221 554.52611,852.63803"
       style="fill:none;fill-rule:evenodd;stroke:#000000;stroke-width:7.08661413;stroke-linecap:round;stroke-linejoin:miter;stroke-miterlimit:4;stroke-dasharray:none;stroke-opacity:1" />
    <path
       d="m 197.90615,977.53905 a 30.759146,80.256622 0 0 1 -27.89276,-37.74278 30.759146,80.256622 0 0 1 -0.63652,-81.96552 30.759146,80.256622 0 0 1 27.2839,-40.6599"
       sodipodi:open="true"
       sodipodi:end="4.7295083"
       sodipodi:start="1.5131576"
       sodipodi:ry="80.256622"
       sodipodi:rx="30.759146"
       sodipodi:cy="897.41571"
       sodipodi:cx="196.13422"
       sodipodi:type="arc"
       style="opacity:1;fill:none;fill-opacity:1;stroke:#000000;stroke-width:3.54330707;stroke-linecap:round;stroke-linejoin:round;stroke-miterlimit:4;stroke-dasharray:none;stroke-dashoffset:0;stroke-opacity:1"
       id="path4307"
       transform="matrix(0.95614882,-0.29288128,0.29288128,0.95614882,0,0)" />
    <path
       id="path4309"
       style="opacity:1;fill:none;fill-opacity:1;stroke:#000000;stroke-width:3.54330707;stroke-linecap:round;stroke-linejoin:round;stroke-miterlimit:4;stroke-dasharray:none;stroke-dashoffset:0;stroke-opacity:1"
       sodipodi:type="arc"
       sodipodi:cx="209.13422"
       sodipodi:cy="897.41571"
       sodipodi:rx="30.759146"
       sodipodi:ry="80.256622"
       sodipodi:start="1.5131576"
       sodipodi:end="4.7295083"
       sodipodi:open="true"
       d="m 210.90615,977.53905 a 30.759146,80.256622 0 0 1 -27.89276,-37.74278 30.759146,80.256622 0 0 1 -0.63652,-81.96552 30.759146,80.256622 0 0 1 27.2839,-40.6599"
       transform="matrix(0.95614882,-0.29288128,0.29288128,0.95614882,0,0)" />
    <path
       sodipodi:open="true"
       d="m 223.90615,977.53905 a 30.759146,80.256622 0 0 1 -32.45387,-74.44032 30.759146,80.256622 0 0 1 28.09811,-85.65598"
       sodipodi:end="4.628288"
       sodipodi:start="1.5131576"
       sodipodi:ry="80.256622"
       sodipodi:rx="30.759146"
       sodipodi:cy="897.41571"
       sodipodi:cx="222.13422"
       sodipodi:type="arc"
       style="opacity:1;fill:none;fill-opacity:1;stroke:#000000;stroke-width:3.54330707;stroke-linecap:round;stroke-linejoin:round;stroke-miterlimit:4;stroke-dasharray:none;stroke-dashoffset:0;stroke-opacity:1"
       id="path4311"
       transform="matrix(0.95614882,-0.29288128,0.29288128,0.95614882,0,0)" />
    <path
       id="path4313"
       style="opacity:1;fill:none;fill-opacity:1;stroke:#000000;stroke-width:3.54330707;stroke-linecap:round;stroke-linejoin:round;stroke-miterlimit:4;stroke-dasharray:none;stroke-dashoffset:0;stroke-opacity:1"
       sodipodi:type="arc"
       sodipodi:cx="235.13422"
       sodipodi:cy="897.41571"
       sodipodi:rx="30.759146"
       sodipodi:ry="80.256622"
       sodipodi:start="1.5131576"
       sodipodi:end="4.6827929"
       sodipodi:open="true"
       d="M 236.90615,977.53905 A 30.759146,80.256622 0 0 1 209.26948,940.85238 30.759146,80.256622 0 0 1 207.91743,860.02389 30.759146,80.256622 0 0 1 234.224,817.19424"
       transform="matrix(0.95614882,-0.29288128,0.29288128,0.95614882,0,0)" />
    <path
       d="m 249.90615,977.53905 a 30.759146,80.256622 0 0 1 -28.08088,-38.54253 30.759146,80.256622 0 0 1 -0.0863,-82.78739 30.759146,80.256622 0 0 1 28.00007,-38.94074"
       sodipodi:open="true"
       sodipodi:end="4.764585"
       sodipodi:start="1.5131576"
       sodipodi:ry="80.256622"
       sodipodi:rx="30.759146"
       sodipodi:cy="897.41571"
       sodipodi:cx="248.13422"
       sodipodi:type="arc"
       style="opacity:1;fill:none;fill-opacity:1;stroke:#000000;stroke-width:3.54330707;stroke-linecap:round;stroke-linejoin:round;stroke-miterlimit:4;stroke-dasharray:none;stroke-dashoffset:0;stroke-opacity:1"
       id="path4315"
       transform="matrix(0.95614882,-0.29288128,0.29288128,0.95614882,0,0)" />
    <path
       id="path4321"
       style="opacity:1;fill:none;fill-opacity:1;stroke:#000000;stroke-width:3.54330707;stroke-linecap:round;stroke-linejoin:round;stroke-miterlimit:4;stroke-dasharray:none;stroke-dashoffset:0;stroke-opacity:1"
       sodipodi:type="arc"
       sodipodi:cx="-248.41272"
       sodipodi:cy="897.67157"
       sodipodi:rx="30.759146"
       sodipodi:ry="80.256622"
       sodipodi:start="2.1439218"
       sodipodi:end="4.1180987"
       sodipodi:open="true"
       d="m -265.0922,965.10401 a 30.759146,80.256622 0 0 1 -14.07794,-66.58315 30.759146,80.256622 0 0 1 13.53473,-67.3456"
       transform="matrix(-0.95614882,0.29288128,0.29288128,0.95614882,0,0)" />
    <path
       transform="matrix(-0.95614882,0.29288128,0.29288128,0.95614882,0,0)"
       d="m -258.005,951.49709 a 30.759146,80.256622 0 0 1 -0.015,-106.94753"
       sodipodi:open="true"
       sodipodi:end="3.8704428"
       sodipodi:start="2.4120119"
       sodipodi:ry="80.256622"
       sodipodi:rx="30.759146"
       sodipodi:cy="898.00146"
       sodipodi:cx="-235.07547"
       sodipodi:type="arc"
       style="opacity:1;fill:none;fill-opacity:1;stroke:#000000;stroke-width:3.54330707;stroke-linecap:round;stroke-linejoin:round;stroke-miterlimit:4;stroke-dasharray:none;stroke-dashoffset:0;stroke-opacity:1"
       id="path4323" />
    <path
       sodipodi:nodetypes="cc"
       inkscape:connector-curvature="0"
       id="path4346"
       d="M 366.43689,826.99913 41.820087,924.88022"
       style="fill:none;fill-rule:evenodd;stroke:#000000;stroke-width:3.54330707;stroke-linecap:round;stroke-linejoin:miter;stroke-miterlimit:4;stroke-dasharray:none;stroke-opacity:1" />
    <path
       style="fill:none;fill-rule:evenodd;stroke:#000000;stroke-width:3.54330707;stroke-linecap:round;stroke-linejoin:miter;stroke-miterlimit:4;stroke-dasharray:3.54330707, 10.62992121;stroke-dashoffset:0;stroke-opacity:1"
       d="m 379.68689,855.99912 c 0,0 -40.38353,74.94451 -162.07529,15.54177 C 59.919834,796.13815 38.536302,925.83266 38.536302,925.83266"
       id="path4352"
       inkscape:connector-curvature="0"
       sodipodi:nodetypes="ccc" />
    <path
       sodipodi:nodetypes="ccc"
       inkscape:connector-curvature="0"
       id="path4354"
       d="m 379.68689,855.99912 c 0,0 -40.38353,74.94451 -162.07529,15.54177 C 59.919834,796.13815 38.536302,925.83266 38.536302,925.83266"
       style="fill:none;fill-rule:evenodd;stroke:#000000;stroke-width:3.54330707;stroke-linecap:round;stroke-linejoin:miter;stroke-miterlimit:4;stroke-dasharray:3.54330707, 10.62992121;stroke-dashoffset:0;stroke-opacity:1" />
    <path
       id="path4356"
       style="opacity:1;fill:none;fill-opacity:1;stroke:#000000;stroke-width:3.54330707;stroke-linecap:round;stroke-linejoin:round;stroke-miterlimit:4;stroke-dasharray:none;stroke-dashoffset:0;stroke-opacity:1"
       sodipodi:type="arc"
       sodipodi:cx="-222.0499"
       sodipodi:cy="895.86041"
       sodipodi:rx="30.759146"
       sodipodi:ry="80.256622"
       sodipodi:start="2.7457235"
       sodipodi:end="3.4396033"
       sodipodi:open="true"
       d="m -250.43018,926.80819 a 30.759146,80.256622 0 0 1 -1.02308,-54.51266"
       transform="matrix(-0.95614882,0.29288128,0.29288128,0.95614882,0,0)" />
    <g
       id="g4328"
       transform="matrix(1.6654488,0,0,1.6654488,71.377443,-403.34917)">
      <g
         style="fill:#ffffff;stroke-width:3.80406106;stroke-miterlimit:4;stroke-dasharray:none"
         transform="matrix(1.1185619,0,0,1.1185619,254.88663,744.72238)"
         id="g4330">
        <path
           style="fill:#ffffff;fill-rule:evenodd;stroke:none;stroke-width:3.80406106;stroke-linecap:round;stroke-linejoin:round;stroke-miterlimit:4;stroke-dasharray:none;stroke-opacity:1"
           d="m 160.23499,-48.18965 c -37.85714,45.71429 -34.1259,116.2985 -34.1259,116.2985 62.85715,32.14286 125.00001,0 125.00001,0 0,0 -4.59619,-77.06363 -24.06163,-116.81109"
           id="path4332"
           inkscape:connector-curvature="0"
           sodipodi:nodetypes="cccc" />
        <path
           sodipodi:nodetypes="cccc"
           inkscape:connector-curvature="0"
           id="path4334"
           d="m 160.23499,-48.18965 c -37.85714,45.71429 -34.1259,116.2985 -34.1259,116.2985 62.85715,32.14286 125.00001,0 125.00001,0 0,0 0,-39.94052 -8.15173,-65.54585"
           style="fill:#ffffff;fill-rule:evenodd;stroke:#000000;stroke-width:3.80406106;stroke-linecap:round;stroke-linejoin:round;stroke-miterlimit:4;stroke-dasharray:none;stroke-opacity:1" />
      </g>
      <circle
         style="opacity:1;fill:#ffffff;fill-opacity:1;stroke:#000000;stroke-width:4.25507777;stroke-linecap:round;stroke-miterlimit:4;stroke-dasharray:none;stroke-dashoffset:0;stroke-opacity:1"
         id="circle4336"
         cx="465.00613"
         cy="643.29236"
         r="33.556858" />
    </g>
    <g
       transform="matrix(-1.5959594,0.42071469,0.42071469,1.5959594,706.67641,-423.34688)"
       id="g4215"
       inkscape:transform-center-x="47.266045"
       inkscape:transform-center-y="14.695662">
      <path
         d="m 140.31141,647.95444 a 22.580095,22.580095 0 0 1 6.62752,15.99053 22.580095,22.580095 0 0 1 -6.64173,15.98463"
         sodipodi:open="true"
         sodipodi:end="0.78716143"
         sodipodi:start="5.4969128"
         sodipodi:ry="22.580095"
         sodipodi:rx="22.580095"
         sodipodi:cy="663.93494"
         sodipodi:cx="124.35884"
         sodipodi:type="arc"
         style="opacity:1;fill:none;fill-opacity:0.41116752;stroke:#000000;stroke-width:4.29366636;stroke-linecap:round;stroke-linejoin:round;stroke-miterlimit:4;stroke-dasharray:none;stroke-dashoffset:0;stroke-opacity:1"
         id="path4217"
         inkscape:transform-center-x="-38.38214"
         inkscape:transform-center-y="0.12495869" />
      <path
         d="m 155.46013,633.15654 a 43.756142,43.756142 0 0 1 0.35179,61.1972"
         sodipodi:open="true"
         sodipodi:end="0.76868342"
         sodipodi:start="5.5030052"
         sodipodi:ry="43.756142"
         sodipodi:rx="43.756142"
         sodipodi:cy="663.93494"
         sodipodi:cx="124.35884"
         sodipodi:type="arc"
         inkscape:transform-center-y="0.12495869"
         inkscape:transform-center-x="-38.38214"
         id="path4219"
         style="opacity:1;fill:none;fill-opacity:0.41116752;stroke:#000000;stroke-width:4.29366636;stroke-linecap:round;stroke-linejoin:round;stroke-miterlimit:4;stroke-dasharray:none;stroke-dashoffset:0;stroke-opacity:1" />
      <path
         d="m 175.25354,613.25996 a 71.820778,71.820778 0 0 1 -0.19697,101.54702"
         sodipodi:open="true"
         sodipodi:end="0.78711442"
         sodipodi:start="5.4999504"
         sodipodi:ry="71.820778"
         sodipodi:rx="71.820778"
         sodipodi:cy="663.93494"
         sodipodi:cx="124.35884"
         sodipodi:type="arc"
         style="opacity:1;fill:none;fill-opacity:0.41116752;stroke:#000000;stroke-width:4.29366636;stroke-linecap:round;stroke-linejoin:round;stroke-miterlimit:4;stroke-dasharray:none;stroke-dashoffset:0;stroke-opacity:1"
         id="path4221"
         inkscape:transform-center-x="-38.38214"
         inkscape:transform-center-y="0.12495869" />
    </g>
  </g>
</svg>
